<svg xmlns="http://www.w3.org/2000/svg" viewBox="155.957 -894 500 473.731">
  <defs>
    <style>
      .cls-1 {
        fill: #fff;
      }
    </style>
  </defs>
  <g id="kindtrust-logo" transform="translate(-66 -1243)">
    <g id="care" transform="translate(323.155 349)">
      <path id="Path_2141" data-name="Path 2141" class="cls-1" d="M300.469,318.807a24.861,24.861,0,0,0-23.929-1.229l-53.909,26.165V340.9c0-13.667-10.469-24.436-24.136-24.436H146.282a108.46,108.46,0,0,1-31.722-4.922l-34.013-10.6V287.227c0-4.384-2.893-8.07-7.277-8.07H25.645c-4.384,0-8.6,3.686-8.6,8.07V413.436c0,4.384,4.216,7.8,8.6,7.8H73.271c4.384,0,7.277-3.422,7.277-7.8V400.729l5.679,4.23a82.4,82.4,0,0,0,51.266,17.869H183.37a80.885,80.885,0,0,0,45.818-14.075l72.11-49.182a24.338,24.338,0,0,0-.829-40.765Zm-235.8,86.558H32.92V295.031H64.671Zm227.677-58.87-72.11,49.147a65.072,65.072,0,0,1-36.868,11.311H137.492a66.472,66.472,0,0,1-41.317-14.366L80.547,380.356v-62.8l29.319,9.147a124.263,124.263,0,0,0,36.417,5.632H198.5c4.913,0,8.261,3.647,8.261,8.561v9.6c-9.525,2.6-31.819,7.211-54.378,3.581a7.782,7.782,0,0,0-8.935,6.576,8,8,0,0,0,6.657,9.1,128,128,0,0,0,20.26,1.556,161.148,161.148,0,0,0,47.5-7.333l.016,0,.034-.009a7.94,7.94,0,0,0,.852-.352c.02-.009.042-.015.061-.025l65-31.742a8.5,8.5,0,0,1,12.225,7.636A8.49,8.49,0,0,1,292.348,346.495Z" transform="translate(-17.046 -106.908)"/>
      <path id="Path_2142" data-name="Path 2142" class="cls-1" d="M29.579,104.289a23.845,23.845,0,0,0,23.4,1.233l53.38-26.161V82.2c0,13.667,11.527,24.955,25.2,24.955h52.213a104.672,104.672,0,0,1,31.193,4.663l33.484,10.341v13.715c0,4.384,3.951,7.795,8.335,7.795H304.4a7.487,7.487,0,0,0,7.541-7.795V9.668c0-4.384-3.157-8.081-7.541-8.081H256.778a8.409,8.409,0,0,0-8.335,8.081V22.375l-5.149-4.367A81.071,81.071,0,0,0,192.555,0H146.677a81.017,81.017,0,0,0-45.819,14.213L28.749,63.463a24.395,24.395,0,0,0,.829,40.825ZM264.318,17.463h31.751V127.8H264.318ZM37.7,76.608l72.11-49.284a65.209,65.209,0,0,1,36.868-11.448h45.877a65.138,65.138,0,0,1,40.789,14.5l15.1,12.37v62.8l-28.789-8.888a120.523,120.523,0,0,0-35.887-5.373H131.553a9.425,9.425,0,0,1-9.32-9.08v-9.6c10.319-2.6,32.346-7.211,54.907-3.58a8.042,8.042,0,0,0,9.2-6.576,7.9,7.9,0,0,0-6.525-9.1c-33.981-5.47-65.932,5.182-67.675,5.776,0,0,.007,0,0,0l-.02.009a3.975,3.975,0,0,0-.448.188c-.153.064-.307.116-.457.189l-65,31.742a8.5,8.5,0,0,1-12.223-7.635A8.5,8.5,0,0,1,37.7,76.608Z" transform="translate(-17.457 0)"/>
      <path id="Path_2143" data-name="Path 2143" class="cls-1" d="M238.494,210.709a24.89,24.89,0,0,0-37.414,21.52c0,8.144,5.631,17.44,17.215,28.424a161.522,161.522,0,0,0,15.594,12.94,7.938,7.938,0,0,0,9.21,0,161.55,161.55,0,0,0,15.594-12.94c11.584-10.982,17.215-20.279,17.215-28.424a24.89,24.89,0,0,0-37.414-21.52Zm21.538,21.521c0,5.052-10.6,16.323-21.541,24.971-10.944-8.635-21.534-19.9-21.534-24.971a9.035,9.035,0,0,1,9.024-9.025,8.93,8.93,0,0,1,6.659,2.935,7.937,7.937,0,0,0,11.709,0,8.931,8.931,0,0,1,6.658-2.935A9.036,9.036,0,0,1,260.032,232.231Z" transform="translate(-87.525 -79.401)"/>
    </g>
    <path id="Path_2176" data-name="Path 2176" class="cls-1" d="M41.581,10.12,41.25,4.227q-.6-9.4-8.343-19.8-9.2,11.588-9.734,19.8l-.4,5.893H5.957V-90.593H23.173V-30.8q2.185-2.582,6.555-7.549,9.535-10.594,11.323-14.567a16.064,16.064,0,0,0,1.324-4.5H59.393A34.27,34.27,0,0,1,58-50q-2.516,8.674-13.64,21.189Q57.539-12.724,58.4,3.432l.4,6.688Zm29.914,0h17.15V-57.419H71.495Zm8.277-68.2a9.753,9.753,0,0,1-7.151-2.98,9.613,9.613,0,0,1-2.98-7.151,9.753,9.753,0,0,1,2.98-7.151,9.865,9.865,0,0,1,7.151-2.913,9.865,9.865,0,0,1,7.151,2.913,9.865,9.865,0,0,1,2.913,7.151,9.722,9.722,0,0,1-2.913,7.151A9.753,9.753,0,0,1,79.772-58.082Zm58.32,68.2V-34.31q0-5.363-1.324-6.622-.662-.6-3.046-.6h-.927a27.77,27.77,0,0,0-11.257,3.311V10.12H104.322V-57.419h15.3l.6,1.192a47.919,47.919,0,0,1,11.588-2.45q.927-.066,1.92-.066,9.2,0,14.832,5.363,6.688,6.29,6.688,19.07V10.12Zm61.9-51.78h-1.457q-4.5.4-6.489,1.92a8.5,8.5,0,0,0-2.649,4.5q-2.649,9.138-.4,20.99a12.546,12.546,0,0,0,2.516,5.761,6.893,6.893,0,0,0,5.5,2.715,20.31,20.31,0,0,0,9.866-2.649V-40.27A16.991,16.991,0,0,0,199.988-41.66Zm-2.98,53.1a23.085,23.085,0,0,1-16.09-6.224,28.154,28.154,0,0,1-8.807-16.289q-2.98-15.825.795-28.936,4.966-17.282,24.3-18.739,1.457-.132,2.781-.132a35.7,35.7,0,0,1,6.886.662V-90.726H224.09V9.988h-14.9l-.331-.53A37.3,37.3,0,0,1,197.008,11.444Zm69.974,0q-8.343,0-13.574-4.7-6.158-5.5-6.158-15.825V-40.27H236.92V-57.486h10.33V-78.873H264.4v21.387h11.19V-40.27H264.4V-11q0,5.43,4.436,6.158a8.7,8.7,0,0,0,4.37-.331l1.788,16.289-6.688.331Zm19.783-1.324V-57.419h17.216v1.258a40.129,40.129,0,0,1,5.3-1.722,23.126,23.126,0,0,1,4.9-.53A22.338,22.338,0,0,1,330.4-51.526a30.561,30.561,0,0,1,4.172,5.032L321.462-35.37q-2.582-5.893-7.284-5.893a4.947,4.947,0,0,0-1.059.132,39.286,39.286,0,0,0-9.138,3.84V10.12Zm81.628,1.324q-10.33,0-16.355-6.489t-6.026-17.613v-44.7h17.216v44.7q0,4.569,1.589,6.026a5.569,5.569,0,0,0,3.576.861,26.474,26.474,0,0,0,11.985-3.245V-57.353h17.15V10.252H381.9l-.4-1.126A39.892,39.892,0,0,1,368.393,11.444Zm64.942,0q-10.727-.066-18.01-5.761l-5.5-4.238L421.548-11l4.5,3.245a12.2,12.2,0,0,0,7.35,1.986,7.248,7.248,0,0,0,5.562-2.053,4.08,4.08,0,0,0,1.192-3.311q-.331-4.569-8.74-8.012l-.464-.2a40.084,40.084,0,0,1-10.33-5.562A17.64,17.64,0,0,1,414-37.489a18.259,18.259,0,0,1,3.576-12.647A18.906,18.906,0,0,1,428.7-57.552a27.229,27.229,0,0,1,6.357-.795,24.65,24.65,0,0,1,15.3,5.5l5.3,4.105L444.326-35.833a26.128,26.128,0,0,0-4.5-3.708,8.776,8.776,0,0,0-7.085-1.324q-1.722.464-1.589,1.854.066,1.258,6.224,3.774l.464.132q18.408,7.482,19.467,22.844a20.8,20.8,0,0,1-5.827,16.223q-7.019,7.482-18.01,7.482Zm64.015,0q-8.343,0-13.574-4.7-6.158-5.5-6.158-15.825V-40.27h-10.33V-57.486h10.33V-78.873h17.15v21.387h11.19V-40.27h-11.19V-11q0,5.43,4.436,6.158a8.7,8.7,0,0,0,4.37-.331l1.788,16.289-6.688.331Z" transform="translate(216 811.287)"/>
  </g>
</svg>
